<svg width="20" height="20" viewBox="0 0 20 20" fill="none" xmlns="http://www.w3.org/2000/svg">
<g clip-path="url(#clip0_223_670)">
<path d="M4.43242 12.0855L3.73625 14.6845L1.19176 14.7383C0.431328 13.3279 0 11.7141 0 9.9993C0 8.34105 0.403281 6.7773 1.11812 5.40039H1.11867L3.38398 5.8157L4.37633 8.06742C4.16863 8.67293 4.05543 9.32293 4.05543 9.9993C4.05551 10.7334 4.18848 11.4367 4.43242 12.0855Z" fill="#FBBB00"/>
<path d="M19.8245 8.13281C19.9394 8.73773 19.9993 9.36246 19.9993 10.0009C19.9993 10.7169 19.924 11.4152 19.7806 12.0889C19.2938 14.3812 18.0218 16.3828 16.2597 17.7993L16.2592 17.7987L13.4059 17.6532L13.0021 15.1323C14.1713 14.4466 15.0851 13.3735 15.5664 12.0889H10.2191V8.13281H15.6444H19.8245Z" fill="#518EF8"/>
<path d="M16.2593 17.7975L16.2598 17.798C14.5461 19.1755 12.3692 19.9996 9.9994 19.9996C6.19116 19.9996 2.88019 17.8711 1.19116 14.7387L4.43183 12.0859C5.27632 14.3398 7.4505 15.9442 9.9994 15.9442C11.095 15.9442 12.1214 15.648 13.0021 15.131L16.2593 17.7975Z" fill="#28B446"/>
<path d="M16.3835 2.30219L13.1439 4.95437C12.2324 4.38461 11.1549 4.05547 10.0005 4.05547C7.39393 4.05547 5.17908 5.73348 4.37689 8.06812L1.1192 5.40109H1.11865C2.78295 2.1923 6.13568 0 10.0005 0C12.4269 0 14.6516 0.864297 16.3835 2.30219Z" fill="#F14336"/>
</g>
<defs>
<clipPath id="clip0_223_670">
<rect width="20" height="20" fill="white"/>
</clipPath>
</defs>
</svg>
